<?xml version="1.0" encoding="utf-8"?>
<!-- Generator: Adobe Illustrator 28.1.0, SVG Export Plug-In . SVG Version: 6.00 Build 0)  -->
<svg version="1.1" id="Double_T_x5F_4C" xmlns="http://www.w3.org/2000/svg" xmlns:xlink="http://www.w3.org/1999/xlink" x="0px"
	 y="0px" viewBox="0 0 325.2 381" style="enable-background:new 0 0 325.2 381;" xml:space="preserve">
<style type="text/css">
	.st0{fill:#B3B4B6;}
	.st1{fill:#CC0000;}
	.st2{fill:#FFFFFF;}
</style>
<g id="Double_T_x5F_4C_1_">
	<path id="Black" d="M325.2,124.5H279l0.1,68.1h-61.9v79.2h30.8v108.7H78.3V271.6h30.8l0.1-79.1H46.8v-68.1H0V0h325.2V124.5z
		 M255,374.2c0-3.2,2.4-5.6,5.5-5.6c3.1,0,5.5,2.4,5.5,5.6c0,3.3-2.4,5.7-5.5,5.7C257.4,379.9,255,377.5,255,374.2z M260.5,381
		c3.7,0,6.9-2.9,6.9-6.8c0-3.9-3.2-6.8-6.9-6.8c-3.7,0-6.9,2.9-6.9,6.8C253.6,378.2,256.8,381,260.5,381z M259.1,374.8h1.4l2.1,3.4
		h1.3l-2.2-3.4c1.1-0.1,2-0.7,2-2.2c0-1.5-0.9-2.2-2.8-2.2h-3v7.8h1.2V374.8z M259.1,373.8v-2.4h1.6c0.8,0,1.7,0.2,1.7,1.1
		c0,1.2-0.9,1.3-1.9,1.3H259.1z"/>
	<path id="Gray" class="st0" d="M125.7,168.3H118h-15.1v15.9H56.7l7.1-7.5h31.5v-15.4h53l-7.3,6.9H125.7z M79.1,79.8V108H17.6
		l-8.8,8.2h77.7V87.3h31.7l7.4-7.5L79.1,79.8z M310.4,108h-62.9l-7,8.2h77.4V8.2l-7.4,8.2V108z M202.1,79.6v44.7h7.5v-37h30.8l7-7.7
		H202.1z M202,340.9h-76.2l-7.5,7.6h91.6v-46.2h0l-7.8,7.3h0v0V340.9z M179.1,161.4v148.2h0.1l7.6-7.3h-0.1v-134h15.3v118.6h31v0.2
		v78H93.9l-7.3,7.2h153.8v-92.4h-30.9V168.3h15.3l7.4-6.9H179.1z M263.5,176.7h-31.3l-7.4,7.5h45.8v-59.9l-7.2,7.2V176.7z"/>
	<path id="Red" class="st1" d="M79.9,161.4l-16.1,15.3v-45.2h199.7l-15,15.1h-85.1H79.9V161.4z M202,309.6L202,309.6l-22.9,0
		L163.5,325h23.8L202,309.6z M248.6,146.6l-16.3,14.7v15.4l16.3-15.3V146.6z M47.1,46.5h117.1h0.1h114.7l31.3-30.2H17.6V108
		l29.5-29.4V46.5z M279.1,46.5l-31.6,33.1V108l31.6-30V46.5z M125.7,79.8v44.5h38.6V46.5L125.7,79.8z M186.8,302.3h23.1l0,0h0v6.5
		l23.1-21.7v-0.2h-31L186.8,302.3L186.8,302.3L186.8,302.3z M125.8,309.7v31.2l14.8-15.9h22.8V146.6l-15.2,14.7v148.3H125.8z
		 M118.3,302.3H141v-134h-15.3v118.5H93.9v78.3l24.4-25.2V302.3z"/>
	<path id="White" class="st2" d="M247.4,108l-7,8.2V87.3l7-7.7V108z M8.8,116.2l8.8-8.2V16.3h292.8l7.4-8.2H8.8V116.2z M164.2,124.3
		h-38.6V79.8l-7.4,7.5v37H56.7v59.9l7.1-7.5v-45.2h199.7l7.2-7.2h-61.1h-7.5H164.2z M93.9,286.8h31.7V168.3H118v111.5H86.7v92.5
		l7.3-7.2V286.8z M232.2,161.4l-7.4,6.9v15.9l7.4-7.5V161.4z M202,309.6L202,309.6l7.8-7.3l0,0l0,0h-23.1l0,0l0,0l-7.6,7.3l0,0H202z
		 M118.3,302.3v37.6v8.6l7.5-7.6v-31.2h22.4V161.4l-7.3,6.9v134H118.3z"/>
</g>
</svg>
